<svg width="115" height="48" viewBox="0 0 115 48" fill="none" xmlns="http://www.w3.org/2000/svg">
<mask id="mask0_1741_333862" style="mask-type:luminance" maskUnits="userSpaceOnUse" x="55" y="7" width="7" height="4">
<path fill-rule="evenodd" clip-rule="evenodd" d="M55.1797 7.06738H61.7555V10.5814H55.1797V7.06738Z" fill="white"/>
</mask>
<g mask="url(#mask0_1741_333862)">
<path fill-rule="evenodd" clip-rule="evenodd" d="M55.1797 7.06872C57.3713 7.06658 59.5639 7.06765 61.7551 7.06765C61.7551 8.239 61.7566 9.41071 61.7541 10.581C59.5625 10.581 57.3713 10.5821 55.1797 10.581C55.1797 9.40929 55.1808 8.239 55.1797 7.06872Z" fill="black"/>
</g>
<path fill-rule="evenodd" clip-rule="evenodd" d="M51.2945 15.198C53.3571 13.5128 56.0288 12.5959 58.6927 12.668C61.7834 12.7213 64.8101 14.1187 66.8808 16.411C65.5151 17.6509 64.1498 18.8901 62.783 20.1279C61.7372 18.9918 60.2474 18.2675 58.6984 18.2096C56.9826 18.1211 55.2552 18.851 54.1119 20.1301C52.9371 21.4105 52.388 23.2315 52.6649 24.9477C52.9275 26.7435 54.0906 28.3733 55.694 29.2205C57.1649 30.0205 58.9859 30.1282 60.5431 29.5151C62.0151 28.9543 63.2127 27.7638 63.8338 26.3213C62.6021 26.3152 61.369 26.3202 60.1373 26.3191C60.1358 24.9335 60.1373 23.5489 60.1358 22.1632C63.3626 22.1608 66.5908 22.1618 69.818 22.1618C69.8119 23.6054 69.8866 25.0682 69.5539 26.4847C68.7931 30.1054 66.1352 33.2485 62.7013 34.6199C60.0392 35.7077 56.9613 35.723 54.2896 34.6629C51.7619 33.6756 49.6225 31.748 48.367 29.3435C47.1982 27.1355 46.8026 24.5344 47.2394 22.0755C47.6996 19.3916 49.1765 16.9057 51.2945 15.198Z" fill="black"/>
<mask id="mask1_1741_333862" style="mask-type:luminance" maskUnits="userSpaceOnUse" x="95" y="12" width="20" height="24">
<path fill-rule="evenodd" clip-rule="evenodd" d="M95.0488 12.6572H114.545V35.4315H95.0488V12.6572Z" fill="white"/>
</mask>
<g mask="url(#mask1_1741_333862)">
<path fill-rule="evenodd" clip-rule="evenodd" d="M102.081 12.9597C103.895 12.524 105.793 12.6107 107.623 12.8943C109.691 13.2462 111.75 13.8791 113.519 15.0327C112.519 16.5107 111.518 17.9877 110.515 19.4658C109.096 18.4739 107.378 17.9721 105.667 17.8207C104.913 17.7724 104.121 17.7571 103.41 18.0457C102.883 18.2493 102.554 18.8883 102.774 19.4253C102.989 19.9662 103.592 20.1545 104.08 20.3699C106.217 21.1979 108.433 21.8288 110.504 22.8238C111.567 23.348 112.661 23.9387 113.397 24.8972C114.237 26.0166 114.684 27.4495 114.507 28.8494C114.284 30.6342 113.199 32.2327 111.77 33.2871C109.884 34.6856 107.525 35.3438 105.198 35.423C102.715 35.5186 100.247 34.805 98.0922 33.5945C96.9895 32.9708 95.9316 32.2444 95.0488 31.3321C96.186 30.1064 97.3229 28.8825 98.4625 27.6578C100.368 29.1206 102.672 30.0883 105.074 30.287C105.978 30.3392 106.931 30.2717 107.747 29.8434C108.232 29.6021 108.555 29.0342 108.441 28.493C108.335 28.0104 107.898 27.7097 107.491 27.4886C106.62 27.0341 105.658 26.7999 104.711 26.5646C102.776 26.1097 100.815 25.5799 99.109 24.5244C97.975 23.825 96.9778 22.8309 96.4867 21.5743C95.767 19.727 96.0368 17.5083 97.2521 15.9286C98.4234 14.3784 100.24 13.4576 102.081 12.9597Z" fill="black"/>
</g>
<path fill-rule="evenodd" clip-rule="evenodd" d="M0.00138231 13.2646C2.76085 13.2657 5.52138 13.2636 8.28085 13.2657C10.4664 13.2718 12.6779 13.8244 14.5226 15.0185C16.0763 16.0136 17.3343 17.4596 18.1129 19.1328C19.0771 21.1848 19.334 23.5229 19.0557 25.7597C18.78 27.9723 17.8194 30.1178 16.2444 31.7106C14.2447 33.7658 11.3619 34.7965 8.52819 34.8416C5.68592 34.8537 2.84365 34.8427 0.00138231 34.8476C0.000316194 27.6528 -0.0011053 20.458 0.00138231 13.2646ZM5.21591 18.4869C5.21698 22.2003 5.21484 25.9124 5.21698 29.6258C7.01232 29.5533 8.87731 29.8515 10.6069 29.2342C11.9097 28.7878 13.0163 27.7785 13.5192 26.4884C14.054 25.1195 14.0753 23.5693 13.6883 22.1588C13.2942 20.7234 12.2068 19.5058 10.8176 18.9653C9.04185 18.2325 7.08304 18.5615 5.21591 18.4869Z" fill="black"/>
<path fill-rule="evenodd" clip-rule="evenodd" d="M72.3833 13.2726C74.2223 13.2715 76.061 13.2715 77.9008 13.2726C77.8997 16.6473 77.9008 20.021 77.9008 23.3947C77.9058 24.1534 77.8645 24.92 78.0113 25.6692C78.27 27.0939 79.0771 28.449 80.3173 29.2273C81.6756 30.0958 83.4933 30.1396 84.9134 29.3908C86.6646 28.4877 87.7187 26.5224 87.7201 24.5792C87.7272 20.8103 87.7069 17.0414 87.7141 13.2726C89.5552 13.2715 91.3964 13.2726 93.238 13.2715C93.2397 16.6452 93.239 20.0199 93.239 23.3947C93.2341 24.1495 93.2675 24.9072 93.1857 25.6596C92.9668 27.8925 92.0535 30.0521 90.5954 31.7587C89.3303 33.2481 87.649 34.3882 85.783 34.975C83.4506 35.712 80.8472 35.5951 78.6108 34.5904C76.7426 33.761 75.1595 32.3323 74.0873 30.5966C72.9704 28.8026 72.3883 26.6891 72.3833 24.5781C72.3822 20.8103 72.3833 17.0414 72.3833 13.2726Z" fill="black"/>
<path fill-rule="evenodd" clip-rule="evenodd" d="M104.155 37.6285C105.174 37.2877 106.377 37.8382 106.789 38.8286C107.161 39.6464 106.955 40.683 106.291 41.2911C105.635 41.9301 104.562 42.0673 103.765 41.6209C103.04 41.2378 102.579 40.419 102.631 39.6012C102.658 38.7089 103.301 37.8829 104.155 37.6285Z" fill="black"/>
<path fill-rule="evenodd" clip-rule="evenodd" d="M24.293 16.3154C26.4241 13.8412 29.6285 12.3347 32.893 12.2754C36.1283 12.1798 39.3846 13.5004 41.6 15.8658C39.3018 14.5346 36.7342 13.5867 34.0668 13.4268C30.5916 13.2221 27.1978 14.4894 24.293 16.3154Z" fill="#465463"/>
<path fill-rule="evenodd" clip-rule="evenodd" d="M31.005 15.3485C32.6795 15.1378 34.3714 15.3379 36.0268 15.6172C37.3132 15.8454 38.6277 16.0369 39.8239 16.5899C41.2095 17.2218 42.5407 18.0001 43.7124 18.9731C44.0354 19.5353 44.2096 20.1693 44.4082 20.7835C43.2913 19.638 41.9433 18.7318 40.4817 18.0857C39.4856 17.6511 38.4881 17.1802 37.4092 16.9957C35.4944 16.6382 33.5526 16.2526 31.5967 16.4015C29.4808 16.591 27.4068 17.2026 25.5038 18.1397C24.098 18.9493 22.7739 19.9433 21.7188 21.1826C21.927 20.4476 22.1658 19.7162 22.5055 19.0296C22.5766 18.8807 22.7078 18.7745 22.8296 18.6678C23.626 18.005 24.4839 17.397 25.453 17.0135C27.2494 16.3013 29.0739 15.5863 31.005 15.3485Z" fill="#465463"/>
<path fill-rule="evenodd" clip-rule="evenodd" d="M29.4702 17.6869C30.7894 17.4029 32.1256 17.0788 33.4852 17.1602C34.9017 17.2228 36.261 17.6499 37.6289 17.9815C39.346 18.3898 41.0013 19.096 42.4509 20.1056C43.2423 20.6405 43.872 21.3694 44.479 22.0972C44.5892 22.2461 44.7324 22.3919 44.7534 22.587C44.8294 23.1467 44.8294 23.7146 44.8319 24.279C43.8482 22.399 42.2 20.8843 40.2451 20.0605C38.4572 19.3092 36.6231 18.5874 34.6839 18.3589C31.9198 18.0156 29.0551 18.5235 26.5889 19.8213C24.5064 20.8971 22.7185 22.5042 21.3613 24.4104C21.3752 23.8521 21.3421 23.2828 21.4605 22.7352C23.4829 20.2357 26.3319 18.4122 29.4702 17.6869Z" fill="#465463"/>
<path fill-rule="evenodd" clip-rule="evenodd" d="M26.1484 21.3719C28.9907 19.6419 32.4872 19.1106 35.7399 19.7364C37.3306 20.0737 38.8097 20.7756 40.2638 21.4807C42.1381 22.4061 43.6953 23.9329 44.6904 25.7691C44.5887 26.3644 44.448 26.9526 44.2717 27.5311C43.674 25.9195 42.6445 24.4663 41.2777 23.419C40.3644 22.6972 39.2912 22.2288 38.2368 21.7554C36.8867 21.1434 35.4489 20.6772 33.9581 20.6228C31.4765 20.4405 28.9385 21.0027 26.7956 22.2735C26.3506 22.5682 25.9697 22.9481 25.5262 23.2452C24.5084 23.9432 23.5876 24.8 22.9025 25.832C22.5002 26.4223 22.2184 27.0826 21.9323 27.7344C21.7536 27.1669 21.6139 26.5858 21.5098 25.9991C22.2873 24.5516 23.4505 23.334 24.797 22.4036C25.2703 22.0902 25.6772 21.6889 26.1484 21.3719Z" fill="#465463"/>
<path fill-rule="evenodd" clip-rule="evenodd" d="M29.1773 23.2149C30.5782 22.5226 32.2019 22.4907 33.7236 22.6847C35.037 22.835 36.2179 23.4658 37.4269 23.9545C38.53 24.4172 39.7052 24.8078 40.6149 25.6149C41.8975 26.7791 42.7426 28.3648 43.1306 30.0426C42.8634 30.4737 42.572 30.8888 42.2621 31.29C41.9888 29.6286 41.39 27.9647 40.1864 26.7461C39.3523 25.8231 38.1252 25.4574 37.0164 24.983C35.8903 24.5366 34.8003 23.9332 33.5814 23.7818C32.5992 23.6574 31.5899 23.6364 30.6219 23.8635C29.8966 24.0313 29.2484 24.4126 28.6222 24.8007C27.5063 25.5058 26.4818 26.3981 25.7824 27.5283C25.023 28.7707 24.4156 30.1055 23.9885 31.4972C23.7209 31.1479 23.4643 30.7893 23.2109 30.4286C23.5887 29.2288 24.1235 28.0763 24.8016 27.0158C25.8698 25.3721 27.4367 24.0931 29.1773 23.2149Z" fill="#465463"/>
<path fill-rule="evenodd" clip-rule="evenodd" d="M31.7091 25.8961C33.5964 25.541 35.6544 25.8534 37.2468 26.9658C39.1722 28.2996 40.631 30.4386 40.8229 32.8091C40.4964 33.0827 40.1602 33.3439 39.8169 33.5959C39.7248 32.5429 39.539 31.4753 39.0123 30.5431C38.163 29.0011 36.7888 27.6759 35.0887 27.1374C34.0403 26.8222 32.9102 26.781 31.8381 26.9999C30.7624 27.2259 29.8693 27.8994 28.9237 28.419C28.344 28.737 27.9414 29.2886 27.6361 29.8601C26.9961 31.0542 26.6173 32.3712 26.3703 33.6979C26.0768 33.48 25.7878 33.259 25.5039 33.029C25.7324 31.685 26.182 30.3772 26.8636 29.1951C27.2339 28.4968 27.7548 27.8713 28.4325 27.4534C29.4549 26.8094 30.5012 26.1232 31.7091 25.8961Z" fill="#465463"/>
<path fill-rule="evenodd" clip-rule="evenodd" d="M30.6764 28.6333C31.7969 28.0782 33.0798 28.0487 34.304 28.0796C34.987 28.0917 35.5574 28.4904 36.1264 28.817C38.0081 29.8217 39.1275 31.9682 39.0909 34.0746C38.7249 34.285 38.3535 34.4851 37.9761 34.6706C37.9771 34.0352 37.9974 33.3905 37.8354 32.7703C37.5194 31.5133 36.6992 30.3565 35.5361 29.7552C35.1054 29.5281 34.7006 29.1863 34.1896 29.1824C33.5954 29.1568 33.0005 29.1905 32.411 29.257C31.5971 29.3483 30.874 29.7659 30.1533 30.1241C29.4919 30.4273 29.0886 31.0748 28.7545 31.69C28.3242 32.6509 28.2659 33.7196 28.2563 34.7562C27.8899 34.5857 27.5288 34.4019 27.1738 34.2082C27.279 32.7398 27.6045 31.2084 28.5299 30.025C29.0577 29.3199 29.9166 29.0143 30.6764 28.6333Z" fill="#465463"/>
<path fill-rule="evenodd" clip-rule="evenodd" d="M30.6704 31.9318C31.2607 31.1393 32.3222 30.9769 33.2415 30.888C33.9658 30.8113 34.6946 31.1048 35.1751 31.6489C36.0664 32.6007 36.6033 33.9387 36.458 35.2511C36.0674 35.3592 35.6748 35.4573 35.2792 35.5482C35.5738 34.444 35.1481 33.2571 34.3954 32.4361C34.1161 32.1013 33.6829 31.9272 33.25 31.9958C32.6171 32.0836 31.8264 32.1308 31.4526 32.7343C30.9366 33.5794 30.8655 34.6018 30.8623 35.5671C30.4977 35.4878 30.1345 35.4039 29.7734 35.3105C29.7912 34.1402 29.9934 32.9141 30.6704 31.9318Z" fill="#465463"/>
<path d="M23.2974 43.6474C23.2974 43.3148 23.3328 42.9928 23.4036 42.6814C23.4814 42.3701 23.6017 42.0941 23.7645 41.8535C23.9273 41.6058 24.1396 41.4112 24.4014 41.2696C24.6632 41.121 24.9817 41.0467 25.3568 41.0467C25.7318 41.0467 26.0503 41.121 26.3121 41.2696C26.574 41.4112 26.7863 41.6058 26.949 41.8535C27.1118 42.0941 27.2286 42.3701 27.2993 42.6814C27.3772 42.9928 27.4161 43.3148 27.4161 43.6474C27.4161 43.9659 27.3772 44.2772 27.2993 44.5815C27.2286 44.8788 27.1118 45.1477 26.949 45.3883C26.7863 45.6289 26.574 45.8235 26.3121 45.9721C26.0503 46.1137 25.7318 46.1844 25.3568 46.1844C24.9817 46.1844 24.6632 46.1137 24.4014 45.9721C24.1396 45.8235 23.9273 45.6289 23.7645 45.3883C23.6017 45.1477 23.4814 44.8788 23.4036 44.5815C23.3328 44.2772 23.2974 43.9659 23.2974 43.6474ZM21.6309 43.6474C21.6309 44.1994 21.7158 44.716 21.8856 45.1972C22.0555 45.6714 22.2996 46.0853 22.6181 46.4392C22.9365 46.793 23.3257 47.0726 23.7857 47.2778C24.2528 47.4759 24.7765 47.575 25.3568 47.575C25.9441 47.575 26.4678 47.4759 26.9278 47.2778C27.3878 47.0726 27.777 46.793 28.0955 46.4392C28.4139 46.0853 28.6581 45.6714 28.8279 45.1972C28.9977 44.716 29.0827 44.1994 29.0827 43.6474C29.0827 43.0813 28.9977 42.5576 28.8279 42.0764C28.6581 41.5881 28.4139 41.1635 28.0955 40.8026C27.777 40.4416 27.3878 40.1586 26.9278 39.9533C26.4678 39.7481 25.9441 39.6455 25.3568 39.6455C24.7765 39.6455 24.2528 39.7481 23.7857 39.9533C23.3257 40.1586 22.9365 40.4416 22.6181 40.8026C22.2996 41.1635 22.0555 41.5881 21.8856 42.0764C21.7158 42.5576 21.6309 43.0813 21.6309 43.6474Z" fill="#465463"/>
<path d="M31.8991 41.2272V47.4052H33.5656V41.2272H35.8373V39.826H29.6274V41.2272H31.8991Z" fill="#465463"/>
<path d="M38.0487 43.6474C38.0487 43.3148 38.0841 42.9928 38.1549 42.6814C38.2327 42.3701 38.353 42.0941 38.5158 41.8535C38.6785 41.6058 38.8908 41.4112 39.1527 41.2696C39.4145 41.121 39.733 41.0467 40.108 41.0467C40.4831 41.0467 40.8016 41.121 41.0634 41.2696C41.3252 41.4112 41.5375 41.6058 41.7003 41.8535C41.8631 42.0941 41.9798 42.3701 42.0506 42.6814C42.1284 42.9928 42.1674 43.3148 42.1674 43.6474C42.1674 43.9659 42.1284 44.2772 42.0506 44.5815C41.9798 44.8788 41.8631 45.1477 41.7003 45.3883C41.5375 45.6289 41.3252 45.8235 41.0634 45.9721C40.8016 46.1137 40.4831 46.1844 40.108 46.1844C39.733 46.1844 39.4145 46.1137 39.1527 45.9721C38.8908 45.8235 38.6785 45.6289 38.5158 45.3883C38.353 45.1477 38.2327 44.8788 38.1549 44.5815C38.0841 44.2772 38.0487 43.9659 38.0487 43.6474ZM36.3821 43.6474C36.3821 44.1994 36.4671 44.716 36.6369 45.1972C36.8067 45.6714 37.0509 46.0853 37.3693 46.4392C37.6878 46.793 38.077 47.0726 38.537 47.2778C39.0041 47.4759 39.5277 47.575 40.108 47.575C40.6954 47.575 41.2191 47.4759 41.6791 47.2778C42.1391 47.0726 42.5283 46.793 42.8467 46.4392C43.1652 46.0853 43.4093 45.6714 43.5792 45.1972C43.749 44.716 43.8339 44.1994 43.8339 43.6474C43.8339 43.0813 43.749 42.5576 43.5792 42.0764C43.4093 41.5881 43.1652 41.1635 42.8467 40.8026C42.5283 40.4416 42.1391 40.1586 41.6791 39.9533C41.2191 39.7481 40.6954 39.6455 40.108 39.6455C39.5277 39.6455 39.0041 39.7481 38.537 39.9533C38.077 40.1586 37.6878 40.4416 37.3693 40.8026C37.0509 41.1635 36.8067 41.5881 36.6369 42.0764C36.4671 42.5576 36.3821 43.0813 36.3821 43.6474Z" fill="#465463"/>
</svg>
